# Blender v2.79 (sub 0) OBJ File: 'mate.blend'
# www.blender.org
mtllib alfombra.mtl
o Rug_7
v -0.473314 0.065618 -1.257093
v -0.473725 0.065618 -1.545703
v -1.032602 0.065618 -1.471741
v -1.030581 0.065618 -1.257093
v -0.471281 0.065618 -0.034519
v -1.022191 0.065618 -0.034519
v -1.023730 0.065618 0.432462
v -0.471696 0.065618 0.432462
v -2.154149 0.065618 0.432462
v -1.913008 0.065618 0.853732
v -1.027227 0.065618 0.853732
v -0.472582 0.065618 0.853733
v 1.197253 0.065618 -0.501501
v 2.327672 0.065618 -0.501501
v 2.086530 0.065618 -0.922771
v 1.200749 0.065618 -0.922770
v 1.702125 0.065618 -1.257093
v 1.204104 0.065618 -1.257093
v 0.646835 0.065618 -1.257093
v 1.206125 0.065618 -1.471741
v 0.647247 0.065618 -1.545703
v 0.645218 0.065618 0.432462
v 0.646104 0.065618 0.853733
v 1.200749 0.065618 0.853732
v 1.197253 0.065618 0.432462
v 0.644803 0.065618 -0.034519
v 1.195714 0.065618 -0.034519
v 0.645218 0.065618 -0.501501
v 0.086761 0.065618 -1.257093
v 0.086761 0.065618 -1.545703
v 0.086761 0.065618 0.853733
v 0.086761 0.065618 0.432462
v -0.473314 0.065618 1.188054
v -1.030581 0.065618 1.188054
v -1.032602 0.065618 1.402702
v -0.473725 0.065618 1.476664
v 0.086761 0.065618 1.476664
v 0.086761 0.065618 1.188054
v 0.646835 0.065618 1.188054
v 0.647247 0.065618 1.476664
v 1.206124 0.065618 1.402702
v 1.204104 0.065618 1.188054
v -0.472582 0.065618 -0.922770
v -1.027227 0.065618 -0.922771
v 0.086761 0.065618 -0.922771
v 0.646104 0.065618 -0.922772
v -0.471696 0.065618 -0.501500
v -1.023730 0.065618 -0.501501
v 0.086761 0.065618 -0.501501
v -1.528602 0.065618 1.188054
v 0.086761 0.065618 -0.034519
v 1.702124 0.065618 1.188054
v 2.086529 0.065618 0.853732
v 2.327670 0.065618 0.432462
v 2.409588 0.065618 -0.034519
v -1.528602 0.065618 -1.257093
v -1.913008 0.065618 -0.922771
v -2.154149 0.065618 -0.501501
v -2.236066 0.065618 -0.034519
v -0.473314 0.001973 -1.257093
v -1.030581 0.001973 -1.257093
v -1.032602 0.001973 -1.471741
v -0.473725 0.001973 -1.545703
v -0.471281 0.001973 -0.034519
v -0.471696 0.001973 0.432462
v -1.023730 0.001973 0.432462
v -1.022191 0.001973 -0.034519
v -1.027227 0.001973 0.853732
v -1.913008 0.001973 0.853732
v -2.154149 0.001973 0.432462
v -0.472582 0.001973 0.853733
v 1.197253 0.001973 -0.501501
v 1.200749 0.001973 -0.922770
v 2.086530 0.001973 -0.922771
v 2.327672 0.001973 -0.501501
v 1.204104 0.001973 -1.257093
v 1.702125 0.001973 -1.257093
v 0.646835 0.001973 -1.257093
v 0.647247 0.001973 -1.545703
v 1.206125 0.001973 -1.471741
v 0.645218 0.001973 0.432462
v 1.197253 0.001973 0.432462
v 1.200749 0.001973 0.853732
v 0.646104 0.001973 0.853733
v 0.644803 0.001973 -0.034519
v 0.645218 0.001973 -0.501501
v 1.195714 0.001973 -0.034519
v 0.086761 0.001973 -1.545703
v 0.086761 0.001973 -1.257093
v 0.086761 0.001973 0.853733
v 0.086761 0.001973 0.432462
v -0.473314 0.001973 1.188054
v -0.473725 0.001973 1.476664
v -1.032602 0.001973 1.402702
v -1.030581 0.001973 1.188054
v 0.086761 0.001973 1.476664
v 0.086761 0.001973 1.188054
v 0.646835 0.001973 1.188054
v 1.204104 0.001973 1.188054
v 1.206124 0.001973 1.402702
v 0.647247 0.001973 1.476664
v -0.472582 0.001973 -0.922770
v -1.027227 0.001973 -0.922771
v 0.086761 0.001973 -0.922771
v 0.646104 0.001973 -0.922772
v -0.471696 0.001973 -0.501500
v -1.023730 0.001973 -0.501501
v 0.086761 0.001973 -0.501501
v -1.528602 0.001973 1.188054
v 0.086761 0.001973 -0.034519
v 1.702124 0.001973 1.188054
v 2.086529 0.001973 0.853732
v 2.327670 0.001973 0.432462
v 2.409588 0.001973 -0.034519
v -1.528602 0.001973 -1.257093
v -1.913008 0.001973 -0.922771
v -2.154149 0.001973 -0.501501
v -2.236066 0.001973 -0.034519
v -0.525765 0.030918 -1.686014
v -1.136533 0.030918 -1.605183
v -1.136533 0.067591 -1.605183
v -0.525765 0.067591 -1.686014
v -2.362212 0.030918 0.475821
v -2.098682 0.030918 0.936205
v -2.098682 0.067591 0.936205
v -2.362212 0.067591 0.475821
v 2.535736 0.030918 -0.544859
v 2.272203 0.030918 -1.005243
v 2.272203 0.067591 -1.005243
v 2.535736 0.067591 -0.544859
v 1.852109 0.030918 -1.370606
v 1.852109 0.067591 -1.370606
v 1.310055 0.030918 -1.605183
v 0.699287 0.030918 -1.686014
v 0.699287 0.067591 -1.686014
v 1.310055 0.067591 -1.605183
v 0.086761 0.030918 -1.686014
v 0.086761 0.067591 -1.686014
v -1.136533 0.030918 1.536145
v -0.525765 0.030918 1.616975
v -0.525765 0.067591 1.616975
v -1.136533 0.067591 1.536145
v 0.086761 0.030918 1.616975
v 0.086761 0.067591 1.616975
v 0.699287 0.030918 1.616975
v 1.310055 0.030918 1.536145
v 1.310055 0.067591 1.536145
v 0.699287 0.067591 1.616975
v -1.678585 0.030918 1.301567
v -1.678585 0.067591 1.301567
v 1.852108 0.030918 1.301567
v 1.852108 0.067591 1.301567
v 2.272203 0.030918 0.936204
v 2.272203 0.067591 0.936204
v 2.535733 0.030918 0.475820
v 2.535733 0.067591 0.475820
v 2.625258 0.030918 -0.034519
v 2.625258 0.067591 -0.034519
v -1.678585 0.030918 -1.370606
v -1.678585 0.067591 -1.370606
v -2.098682 0.030918 -1.005243
v -2.098682 0.067591 -1.005243
v -2.362212 0.030918 -0.544859
v -2.362212 0.067591 -0.544859
v -2.451736 0.030918 -0.034519
v -2.451736 0.067591 -0.034519
v -1.136533 0.000000 -1.605183
v -0.525765 0.000000 -1.686014
v -2.098682 0.000000 0.936205
v -2.362212 0.000000 0.475821
v 2.272203 0.000000 -1.005243
v 2.535736 0.000000 -0.544859
v 1.852109 0.000000 -1.370606
v 0.699287 0.000000 -1.686014
v 1.310055 0.000000 -1.605183
v 0.086761 0.000000 -1.686014
v -0.525765 -0.000000 1.616975
v -1.136533 -0.000000 1.536145
v 0.086761 -0.000000 1.616975
v 1.310055 -0.000000 1.536145
v 0.699287 -0.000000 1.616975
v -1.678585 -0.000000 1.301567
v 1.852108 -0.000000 1.301567
v 2.272203 0.000000 0.936204
v 2.535733 0.000000 0.475820
v 2.625258 0.000000 -0.034519
v -1.678585 0.000000 -1.370606
v -2.098682 0.000000 -1.005243
v -2.362212 0.000000 -0.544859
v -2.451736 0.000000 -0.034519
vt 0.376683 0.299755
vt 0.367824 0.353739
vt 0.353661 0.344479
vt 0.361767 0.295081
vt 0.145779 0.461115
vt 0.096877 0.437574
vt 0.105734 0.421191
vt 0.150481 0.442731
vt 0.256471 0.028383
vt 0.305373 0.051923
vt 0.296515 0.068306
vt 0.251769 0.046766
vt 0.344094 0.089265
vt 0.331946 0.102476
vt 0.368841 0.137329
vt 0.377192 0.191394
vt 0.362233 0.195927
vt 0.354591 0.146456
vt 0.376938 0.245574
vt 0.362000 0.245504
vt 0.033409 0.352168
vt 0.025058 0.298103
vt 0.040017 0.293570
vt 0.047659 0.343042
vt 0.025312 0.243923
vt 0.040250 0.243993
vt 0.025567 0.189743
vt 0.034425 0.135758
vt 0.048589 0.145019
vt 0.040483 0.194416
vt 0.058156 0.400232
vt 0.070304 0.387022
vt 0.059623 0.087929
vt 0.071646 0.101253
vt 0.098693 0.050953
vt 0.107396 0.067418
vt 0.147813 0.027873
vt 0.152343 0.046299
vt 0.202180 0.020209
vt 0.202090 0.039287
vt 0.342627 0.401568
vt 0.330604 0.388245
vt 0.303557 0.438545
vt 0.294854 0.422079
vt 0.254437 0.461625
vt 0.249907 0.443198
vt 0.200070 0.469288
vt 0.200160 0.450211
vt 0.416137 0.354155
vt 0.407144 0.300193
vt 0.422048 0.295483
vt 0.430278 0.344860
vt 0.687293 0.437313
vt 0.638451 0.460976
vt 0.633703 0.442604
vt 0.678395 0.420952
vt 0.477834 0.052185
vt 0.526677 0.028522
vt 0.531425 0.046893
vt 0.486733 0.068545
vt 0.439207 0.089623
vt 0.451387 0.102803
vt 0.406364 0.191835
vt 0.414580 0.137749
vt 0.428853 0.146840
vt 0.421335 0.196330
vt 0.406754 0.246014
vt 0.421691 0.245906
vt 0.758764 0.297663
vt 0.750548 0.351749
vt 0.736275 0.342658
vt 0.743793 0.293167
vt 0.758374 0.243484
vt 0.743436 0.243591
vt 0.748990 0.135342
vt 0.757984 0.189304
vt 0.743079 0.194015
vt 0.734850 0.144638
vt 0.725921 0.399874
vt 0.713741 0.386694
vt 0.723673 0.087576
vt 0.711684 0.100930
vt 0.684511 0.050697
vt 0.675849 0.067185
vt 0.635333 0.027740
vt 0.630850 0.046178
vt 0.580948 0.020213
vt 0.581085 0.039290
vt 0.441454 0.401922
vt 0.453444 0.388568
vt 0.480617 0.438800
vt 0.489278 0.422313
vt 0.529795 0.461757
vt 0.534278 0.443320
vt 0.584180 0.469285
vt 0.584042 0.450208
vt 0.331043 0.294901
vt 0.330811 0.344193
vt 0.200893 0.294110
vt 0.200664 0.342839
vt 0.150951 0.342742
vt 0.151180 0.293913
vt 0.106102 0.342841
vt 0.106333 0.293780
vt 0.251299 0.146755
vt 0.296147 0.146657
vt 0.331740 0.146527
vt 0.331508 0.195820
vt 0.151644 0.195118
vt 0.106797 0.194829
vt 0.107028 0.145769
vt 0.151873 0.146289
vt 0.201357 0.195388
vt 0.201586 0.146658
vt 0.251070 0.195585
vt 0.331275 0.245360
vt 0.106565 0.244305
vt 0.151412 0.244515
vt 0.070742 0.293678
vt 0.070510 0.342970
vt 0.070974 0.244137
vt 0.071207 0.194597
vt 0.071439 0.145305
vt 0.295452 0.294669
vt 0.295222 0.343729
vt 0.295685 0.245193
vt 0.295917 0.195717
vt 0.250606 0.294380
vt 0.250377 0.343209
vt 0.250838 0.244982
vt 0.201125 0.244749
vt 0.452772 0.295225
vt 0.453127 0.344517
vt 0.582919 0.294109
vt 0.632632 0.293788
vt 0.632983 0.342616
vt 0.583270 0.342838
vt 0.677831 0.342603
vt 0.677478 0.293543
vt 0.532145 0.146881
vt 0.487296 0.146895
vt 0.451704 0.146854
vt 0.452059 0.196146
vt 0.631921 0.194994
vt 0.631569 0.146166
vt 0.676413 0.145534
vt 0.676766 0.194593
vt 0.582209 0.195389
vt 0.532496 0.195710
vt 0.581858 0.146660
vt 0.452415 0.245685
vt 0.677122 0.244068
vt 0.632276 0.244391
vt 0.713069 0.293352
vt 0.713423 0.342643
vt 0.712712 0.243812
vt 0.712356 0.194272
vt 0.712001 0.144981
vt 0.488362 0.294904
vt 0.488715 0.343964
vt 0.488005 0.245429
vt 0.487649 0.195954
vt 0.533207 0.294503
vt 0.533558 0.343332
vt 0.532852 0.245107
vt 0.582564 0.244749
vt 0.060213 0.695561
vt 0.060035 0.744026
vt 0.057037 0.744015
vt 0.057215 0.695550
vt 0.039951 0.572393
vt 0.040050 0.526594
vt 0.042906 0.526601
vt 0.042807 0.572399
vt 0.077009 0.610212
vt 0.076976 0.564414
vt 0.079832 0.564412
vt 0.079865 0.610210
vt 0.076944 0.519020
vt 0.079800 0.519018
vt 0.060744 0.551098
vt 0.060566 0.599563
vt 0.057568 0.599552
vt 0.057746 0.551087
vt 0.060389 0.647562
vt 0.057391 0.647551
vt 0.098540 0.754096
vt 0.098756 0.705632
vt 0.101754 0.705646
vt 0.101538 0.754109
vt 0.098970 0.657634
vt 0.101968 0.657648
vt 0.099184 0.609636
vt 0.099399 0.561173
vt 0.102398 0.561186
vt 0.102182 0.609650
vt 0.040149 0.481200
vt 0.043004 0.481207
vt 0.099613 0.513281
vt 0.102611 0.513295
vt 0.077140 0.794067
vt 0.077108 0.748673
vt 0.079964 0.748671
vt 0.079996 0.794065
vt 0.077075 0.702875
vt 0.079931 0.702873
vt 0.077042 0.656543
vt 0.079898 0.656541
vt 0.060920 0.503206
vt 0.057922 0.503195
vt 0.059859 0.791918
vt 0.056860 0.791907
vt 0.039552 0.756247
vt 0.039650 0.710853
vt 0.042506 0.710860
vt 0.042407 0.756254
vt 0.039749 0.665055
vt 0.042605 0.665061
vt 0.039850 0.618724
vt 0.042706 0.618730
vt 0.098326 0.801987
vt 0.101324 0.802001
vt 0.062741 0.695570
vt 0.062562 0.744035
vt 0.062386 0.791928
vt 0.037144 0.756242
vt 0.037242 0.710848
vt 0.037342 0.665050
vt 0.037442 0.618719
vt 0.037543 0.572388
vt 0.037642 0.526589
vt 0.037741 0.481195
vt 0.095799 0.801976
vt 0.096012 0.754085
vt 0.096228 0.705621
vt 0.096442 0.657623
vt 0.096656 0.609625
vt 0.096872 0.561162
vt 0.097085 0.513270
vt 0.074732 0.794069
vt 0.074700 0.748675
vt 0.074667 0.702876
vt 0.074634 0.656545
vt 0.074601 0.610214
vt 0.074568 0.564415
vt 0.074536 0.519021
vt 0.063448 0.503215
vt 0.063272 0.551108
vt 0.063094 0.599572
vt 0.062917 0.647571
vn 0.0018 0.9999 0.0134
vn 0.0085 1.0000 -0.0048
vn -0.0085 1.0000 0.0048
vn -0.0070 0.9999 0.0081
vn -0.0018 0.9999 0.0134
vn 0.0000 0.9999 0.0141
vn 0.0018 0.9999 -0.0134
vn 0.0000 0.9999 -0.0141
vn -0.0018 0.9999 -0.0134
vn 0.0070 0.9999 -0.0081
vn -0.0048 0.9999 -0.0111
vn -0.0070 0.9999 -0.0081
vn -0.0085 1.0000 -0.0048
vn -0.0091 1.0000 -0.0016
vn -0.0091 1.0000 0.0016
vn -0.0048 0.9999 0.0111
vn 0.0048 0.9999 0.0111
vn 0.0070 0.9999 0.0081
vn 0.0085 1.0000 0.0048
vn 0.0091 1.0000 0.0016
vn 0.0091 1.0000 -0.0016
vn 0.0048 0.9999 -0.0111
vn 0.0018 -0.9999 0.0134
vn 0.0085 -1.0000 -0.0048
vn -0.0085 -1.0000 0.0048
vn -0.0070 -0.9999 0.0081
vn -0.0018 -0.9999 0.0134
vn 0.0000 -0.9999 0.0141
vn 0.0018 -0.9999 -0.0134
vn 0.0000 -0.9999 -0.0141
vn -0.0018 -0.9999 -0.0134
vn 0.0070 -0.9999 -0.0081
vn -0.0048 -0.9999 -0.0111
vn -0.0070 -0.9999 -0.0081
vn -0.0085 -1.0000 -0.0048
vn -0.0091 -1.0000 -0.0016
vn -0.0091 -1.0000 0.0016
vn -0.0048 -0.9999 0.0111
vn 0.0048 -0.9999 0.0111
vn 0.0070 -0.9999 0.0081
vn 0.0085 -1.0000 0.0048
vn 0.0091 -1.0000 0.0016
vn 0.0091 -1.0000 -0.0016
vn 0.0048 -0.9999 -0.0111
vn -0.0000 1.0000 0.0000
vn 0.0000 -1.0000 -0.0000
vn -0.1312 0.0000 -0.9914
vn -0.8679 0.0000 0.4968
vn 0.8679 0.0000 -0.4968
vn 0.6562 0.0000 -0.7545
vn 0.1312 0.0000 -0.9914
vn 0.0000 0.0000 -1.0000
vn -0.1312 0.0000 0.9914
vn 0.0000 0.0000 1.0000
vn 0.1312 0.0000 0.9914
vn -0.6562 0.0000 0.7546
vn 0.3972 0.0000 0.9177
vn 0.6562 0.0000 0.7545
vn 0.8679 0.0000 0.4968
vn 0.9850 0.0000 0.1728
vn 0.9850 0.0000 -0.1728
vn 0.3972 0.0000 -0.9177
vn -0.3972 0.0000 -0.9177
vn -0.6562 0.0000 -0.7546
vn -0.8679 0.0000 -0.4968
vn -0.9850 0.0000 -0.1728
vn -0.9850 0.0000 0.1728
vn -0.3972 0.0000 0.9177
usemtl aiStandardSurface2SG2
s off
f 122/1/1 121/2/1 3/3/1 2/4/1
f 126/5/2 125/6/2 10/7/2 9/8/2
f 130/9/3 129/10/3 15/11/3 14/12/3
f 129/10/4 132/13/4 17/14/4 15/11/4
f 136/15/5 135/16/5 21/17/5 20/18/5
f 138/19/6 122/1/6 2/4/6 30/20/6
f 142/21/7 141/22/7 36/23/7 35/24/7
f 141/22/8 144/25/8 37/26/8 36/23/8
f 148/27/9 147/28/9 41/29/9 40/30/9
f 125/6/10 150/31/10 50/32/10 10/7/10
f 147/28/11 152/33/11 52/34/11 41/29/11
f 152/33/12 154/35/12 53/36/12 52/34/12
f 154/35/13 156/37/13 54/38/13 53/36/13
f 156/37/14 158/39/14 55/40/14 54/38/14
f 158/39/15 130/9/15 14/12/15 55/40/15
f 132/13/16 136/15/16 20/18/16 17/14/16
f 121/2/17 160/41/17 56/42/17 3/3/17
f 160/41/18 162/43/18 57/44/18 56/42/18
f 162/43/19 164/45/19 58/46/19 57/44/19
f 164/45/20 166/47/20 59/48/20 58/46/20
f 166/47/21 126/5/21 9/8/21 59/48/21
f 150/31/22 142/21/22 35/24/22 50/32/22
f 144/25/8 148/27/8 40/30/8 37/26/8
f 135/16/6 138/19/6 30/20/6 21/17/6
f 167/49/23 168/50/23 63/51/23 62/52/23
f 169/53/24 170/54/24 70/55/24 69/56/24
f 171/57/25 172/58/25 75/59/25 74/60/25
f 173/61/26 171/57/26 74/60/26 77/62/26
f 174/63/27 175/64/27 80/65/27 79/66/27
f 168/50/28 176/67/28 88/68/28 63/51/28
f 177/69/29 178/70/29 94/71/29 93/72/29
f 179/73/30 177/69/30 93/72/30 96/74/30
f 180/75/31 181/76/31 101/77/31 100/78/31
f 182/79/32 169/53/32 69/56/32 109/80/32
f 183/81/33 180/75/33 100/78/33 111/82/33
f 184/83/34 183/81/34 111/82/34 112/84/34
f 185/85/35 184/83/35 112/84/35 113/86/35
f 186/87/36 185/85/36 113/86/36 114/88/36
f 172/58/37 186/87/37 114/88/37 75/59/37
f 175/64/38 173/61/38 77/62/38 80/65/38
f 187/89/39 167/49/39 62/52/39 115/90/39
f 188/91/40 187/89/40 115/90/40 116/92/40
f 189/93/41 188/91/41 116/92/41 117/94/41
f 190/95/42 189/93/42 117/94/42 118/96/42
f 170/54/43 190/95/43 118/96/43 70/55/43
f 178/70/44 182/79/44 109/80/44 94/71/44
f 181/76/30 179/73/30 96/74/30 101/77/30
f 176/67/28 174/63/28 79/66/28 88/68/28
s 1
f 1/97/45 2/4/45 3/3/45 4/98/45
f 5/99/45 6/100/45 7/101/45 8/102/45
f 7/101/45 9/8/45 10/7/45 11/103/45
f 8/102/45 7/101/45 11/103/45 12/104/45
f 13/105/45 14/12/45 15/11/45 16/106/45
f 15/11/45 17/14/45 18/107/45 16/106/45
f 19/108/45 18/107/45 20/18/45 21/17/45
f 22/109/45 23/110/45 24/111/45 25/112/45
f 26/113/45 27/114/45 13/105/45 28/115/45
f 2/4/45 1/97/45 29/116/45 30/20/45
f 31/117/45 32/118/45 8/102/45 12/104/45
f 33/119/45 34/120/45 35/24/45 36/23/45
f 37/26/45 38/121/45 33/119/45 36/23/45
f 39/122/45 40/30/45 41/29/45 42/123/45
f 43/124/45 1/97/45 4/98/45 44/125/45
f 45/126/45 29/116/45 1/97/45 43/124/45
f 46/127/45 16/106/45 18/107/45 19/108/45
f 47/128/45 43/124/45 44/125/45 48/129/45
f 49/130/45 45/126/45 43/124/45 47/128/45
f 28/115/45 13/105/45 16/106/45 46/127/45
f 10/7/45 50/32/45 34/120/45 11/103/45
f 12/104/45 11/103/45 34/120/45 33/119/45
f 38/121/45 31/117/45 12/104/45 33/119/45
f 23/110/45 39/122/45 42/123/45 24/111/45
f 26/113/45 22/109/45 25/112/45 27/114/45
f 5/99/45 8/102/45 32/118/45 51/131/45
f 5/99/45 47/128/45 48/129/45 6/100/45
f 51/131/45 49/130/45 47/128/45 5/99/45
f 41/29/45 52/34/45 42/123/45
f 53/36/45 24/111/45 42/123/45 52/34/45
f 24/111/45 53/36/45 54/38/45 25/112/45
f 25/112/45 54/38/45 55/40/45 27/114/45
f 27/114/45 55/40/45 14/12/45 13/105/45
f 17/14/45 20/18/45 18/107/45
f 3/3/45 56/42/45 4/98/45
f 57/44/45 44/125/45 4/98/45 56/42/45
f 44/125/45 57/44/45 58/46/45 48/129/45
f 48/129/45 58/46/45 59/48/45 6/100/45
f 6/100/45 59/48/45 9/8/45 7/101/45
f 50/32/45 35/24/45 34/120/45
f 39/122/45 38/121/45 37/26/45 40/30/45
f 23/110/45 31/117/45 38/121/45 39/122/45
f 22/109/45 32/118/45 31/117/45 23/110/45
f 51/131/45 32/118/45 22/109/45 26/113/45
f 28/115/45 49/130/45 51/131/45 26/113/45
f 46/127/45 45/126/45 49/130/45 28/115/45
f 19/108/45 29/116/45 45/126/45 46/127/45
f 30/20/45 29/116/45 19/108/45 21/17/45
f 60/132/46 61/133/46 62/52/46 63/51/46
f 64/134/46 65/135/46 66/136/46 67/137/46
f 66/136/46 68/138/46 69/56/46 70/55/46
f 65/135/46 71/139/46 68/138/46 66/136/46
f 72/140/46 73/141/46 74/60/46 75/59/46
f 74/60/46 73/141/46 76/142/46 77/62/46
f 78/143/46 79/66/46 80/65/46 76/142/46
f 81/144/46 82/145/46 83/146/46 84/147/46
f 85/148/46 86/149/46 72/140/46 87/150/46
f 63/51/46 88/68/46 89/151/46 60/132/46
f 90/152/46 71/139/46 65/135/46 91/153/46
f 92/154/46 93/72/46 94/71/46 95/155/46
f 96/74/46 93/72/46 92/154/46 97/156/46
f 98/157/46 99/158/46 100/78/46 101/77/46
f 102/159/46 103/160/46 61/133/46 60/132/46
f 104/161/46 102/159/46 60/132/46 89/151/46
f 105/162/46 78/143/46 76/142/46 73/141/46
f 106/163/46 107/164/46 103/160/46 102/159/46
f 108/165/46 106/163/46 102/159/46 104/161/46
f 86/149/46 105/162/46 73/141/46 72/140/46
f 69/56/46 68/138/46 95/155/46 109/80/46
f 71/139/46 92/154/46 95/155/46 68/138/46
f 97/156/46 92/154/46 71/139/46 90/152/46
f 84/147/46 83/146/46 99/158/46 98/157/46
f 85/148/46 87/150/46 82/145/46 81/144/46
f 64/134/46 110/166/46 91/153/46 65/135/46
f 64/134/46 67/137/46 107/164/46 106/163/46
f 110/166/46 64/134/46 106/163/46 108/165/46
f 100/78/46 99/158/46 111/82/46
f 112/84/46 111/82/46 99/158/46 83/146/46
f 83/146/46 82/145/46 113/86/46 112/84/46
f 82/145/46 87/150/46 114/88/46 113/86/46
f 87/150/46 72/140/46 75/59/46 114/88/46
f 77/62/46 76/142/46 80/65/46
f 62/52/46 61/133/46 115/90/46
f 116/92/46 115/90/46 61/133/46 103/160/46
f 103/160/46 107/164/46 117/94/46 116/92/46
f 107/164/46 67/137/46 118/96/46 117/94/46
f 67/137/46 66/136/46 70/55/46 118/96/46
f 109/80/46 95/155/46 94/71/46
f 98/157/46 101/77/46 96/74/46 97/156/46
f 84/147/46 98/157/46 97/156/46 90/152/46
f 81/144/46 84/147/46 90/152/46 91/153/46
f 110/166/46 85/148/46 81/144/46 91/153/46
f 86/149/46 85/148/46 110/166/46 108/165/46
f 105/162/46 86/149/46 108/165/46 104/161/46
f 78/143/46 105/162/46 104/161/46 89/151/46
f 88/68/46 79/66/46 78/143/46 89/151/46
f 119/167/47 120/168/47 121/169/47 122/170/47
f 123/171/48 124/172/48 125/173/48 126/174/48
f 127/175/49 128/176/49 129/177/49 130/178/49
f 128/176/50 131/179/50 132/180/50 129/177/50
f 133/181/51 134/182/51 135/183/51 136/184/51
f 137/185/52 119/167/52 122/170/52 138/186/52
f 139/187/53 140/188/53 141/189/53 142/190/53
f 140/188/54 143/191/54 144/192/54 141/189/54
f 145/193/55 146/194/55 147/195/55 148/196/55
f 124/172/56 149/197/56 150/198/56 125/173/56
f 146/194/57 151/199/57 152/200/57 147/195/57
f 151/201/58 153/202/58 154/203/58 152/204/58
f 153/202/59 155/205/59 156/206/59 154/203/59
f 155/205/60 157/207/60 158/208/60 156/206/60
f 157/207/61 127/175/61 130/178/61 158/208/61
f 131/209/62 133/181/62 136/184/62 132/210/62
f 120/168/63 159/211/63 160/212/63 121/169/63
f 159/213/64 161/214/64 162/215/64 160/216/64
f 161/214/65 163/217/65 164/218/65 162/215/65
f 163/217/66 165/219/66 166/220/66 164/218/66
f 165/219/67 123/171/67 126/174/67 166/220/67
f 149/221/68 139/187/68 142/190/68 150/222/68
f 143/191/54 145/193/54 148/196/54 144/192/54
f 134/182/52 137/185/52 138/186/52 135/183/52
f 168/223/47 167/224/47 120/168/47 119/167/47
f 167/224/63 187/225/63 159/211/63 120/168/63
f 187/226/64 188/227/64 161/214/64 159/213/64
f 188/227/65 189/228/65 163/217/65 161/214/65
f 189/228/66 190/229/66 165/219/66 163/217/66
f 190/229/67 170/230/67 123/171/67 165/219/67
f 170/230/48 169/231/48 124/172/48 123/171/48
f 169/231/56 182/232/56 149/197/56 124/172/56
f 182/233/68 178/234/68 139/187/68 149/221/68
f 178/234/53 177/235/53 140/188/53 139/187/53
f 177/235/54 179/236/54 143/191/54 140/188/54
f 179/236/54 181/237/54 145/193/54 143/191/54
f 181/237/55 180/238/55 146/194/55 145/193/55
f 180/238/57 183/239/57 151/199/57 146/194/57
f 183/240/58 184/241/58 153/202/58 151/201/58
f 184/241/59 185/242/59 155/205/59 153/202/59
f 185/242/60 186/243/60 157/207/60 155/205/60
f 186/243/61 172/244/61 127/175/61 157/207/61
f 172/244/49 171/245/49 128/176/49 127/175/49
f 171/245/50 173/246/50 131/179/50 128/176/50
f 173/247/62 175/248/62 133/181/62 131/209/62
f 175/248/51 174/249/51 134/182/51 133/181/51
f 174/249/52 176/250/52 137/185/52 134/182/52
f 176/250/52 168/223/52 119/167/52 137/185/52
