# Blender v2.79 (sub 0) OBJ File: 'mate.blend'
# www.blender.org
mtllib baseMonitor.mtl
o COMP1_Untitled.004
v -0.598828 -0.004742 0.516437
v 0.598828 -0.004742 0.516436
v -0.627797 -0.011654 -0.691921
v 0.627797 -0.011654 -0.691921
v -0.598828 0.281001 0.516437
v 0.598828 0.281001 0.516436
v -0.627797 0.287912 -0.691921
v 0.627797 0.287912 -0.691921
v -0.627797 -0.011654 0.412658
v 0.627797 -0.011654 0.412658
v 0.627797 0.287912 0.412658
v -0.627797 0.287912 0.412658
vt 0.116793 0.255132
vt 0.125807 0.255132
vt 0.125599 0.255340
vt 0.117001 0.255340
vt 0.125599 0.263938
vt 0.125807 0.264146
vt 0.116793 0.264146
vt 0.117001 0.263938
vt 0.003105 0.251793
vt 0.241216 0.251793
vt 0.241216 0.302305
vt 0.003105 0.302306
vt 0.119903 0.197666
vt 0.336451 0.197666
vt 0.336451 0.247872
vt 0.119903 0.247872
vt 0.056503 0.268868
vt 0.056503 0.280926
vt 0.056503 0.280926
vt 0.056503 0.268868
vt 0.068562 0.268868
vt 0.068562 0.268868
vt 0.068562 0.280926
vt 0.068562 0.280926
vn 0.0000 -0.9978 0.0665
vn 0.0000 0.9978 0.0664
vn 0.0000 0.9978 0.0665
vn 0.0000 0.0000 1.0000
vn 0.9632 0.0000 0.2689
vn -0.0000 0.0000 -1.0000
vn -1.0000 0.0000 0.0000
vn 0.0000 -1.0000 0.0000
vn -0.0000 1.0000 -0.0000
vn 1.0000 0.0000 -0.0000
vn -0.9632 0.0000 0.2689
usemtl Material_#29
s off
f 9/1/1 10/2/1 2/3/1
f 2/3/1 1/4/1 9/1/1
f 6/5/2 11/6/2 12/7/2
f 12/7/3 5/8/3 6/5/3
f 1/9/4 2/10/4 6/11/4
f 6/11/4 5/12/4 1/9/4
f 10/2/5 11/6/5 6/5/5
f 6/5/5 2/3/5 10/2/5
f 4/13/6 3/14/6 7/15/6
f 7/15/6 8/16/6 4/13/6
f 9/17/7 12/18/7 7/19/7
f 7/19/7 3/20/7 9/17/7
f 3/20/8 4/21/8 10/22/8
f 10/22/8 9/17/8 3/20/8
f 8/23/9 7/19/9 12/18/9
f 12/18/9 11/24/9 8/23/9
f 4/21/10 8/23/10 11/24/10
f 11/24/10 10/22/10 4/21/10
f 1/4/11 5/8/11 12/7/11
f 12/7/11 9/1/11 1/4/11
