# Blender v2.79 (sub 0) OBJ File: ''
# www.blender.org
mtllib frazada.mtl
o Plane
v 0.648204 0.275879 1.000000
v 0.648204 0.262565 -1.250582
v 0.166667 0.582572 1.000000
v 0.333333 0.582572 1.000000
v 0.494056 0.578519 1.000000
v 0.606545 0.541580 1.000000
v 0.641980 0.430176 1.000000
v 0.641980 0.428066 -1.250582
v 0.606545 0.545379 -1.250582
v 0.494056 0.585404 -1.250582
v 0.333333 0.584006 -1.250582
v 0.166667 0.570553 -1.250582
v 0.648204 0.273544 0.839244
v 0.648204 0.271209 0.678488
v 0.648204 0.269087 0.517732
v 0.648204 0.268477 0.356977
v 0.648204 0.267196 0.196221
v 0.648204 0.265437 0.035465
v 0.648204 0.263359 -0.125291
v 0.648204 0.261659 -0.286047
v 0.648204 0.258425 -0.446803
v 0.648204 0.256648 -0.607558
v 0.648204 0.261400 -0.768314
v 0.648204 0.267610 -0.929070
v 0.648204 0.268727 -1.089826
v 0.166667 0.580641 0.839244
v 0.166667 0.586425 0.678488
v 0.166667 0.597815 0.517732
v 0.166667 0.608442 0.356977
v 0.166667 0.614251 0.196221
v 0.166667 0.610712 0.035465
v 0.166667 0.599720 -0.125291
v 0.166667 0.585463 -0.286047
v 0.166667 0.573210 -0.446803
v 0.166667 0.568873 -0.607558
v 0.166667 0.570947 -0.768314
v 0.166667 0.575251 -0.929070
v 0.166667 0.576655 -1.089826
v 0.333333 0.580328 0.839244
v 0.333333 0.584429 0.678488
v 0.333333 0.594169 0.517732
v 0.333333 0.603373 0.356977
v 0.333333 0.608881 0.196221
v 0.333333 0.606892 0.035465
v 0.333333 0.598016 -0.125291
v 0.333333 0.585760 -0.286047
v 0.333333 0.574958 -0.446803
v 0.333333 0.575049 -0.607558
v 0.333333 0.581269 -0.768314
v 0.333333 0.588816 -0.929070
v 0.333333 0.591792 -1.089826
v 0.494056 0.576185 0.839244
v 0.494056 0.576229 0.678488
v 0.494056 0.581840 0.517732
v 0.494056 0.587588 0.356977
v 0.494056 0.591060 0.196221
v 0.494056 0.589947 0.035465
v 0.494056 0.583875 -0.125291
v 0.494056 0.575411 -0.286047
v 0.494056 0.569332 -0.446803
v 0.494056 0.571824 -0.607558
v 0.494056 0.580354 -0.768314
v 0.494056 0.590111 -0.929070
v 0.494056 0.594188 -1.089826
v 0.606545 0.539246 0.839244
v 0.606545 0.537130 0.678488
v 0.606545 0.538841 0.517732
v 0.606545 0.541686 0.356977
v 0.606545 0.543010 0.196221
v 0.606545 0.541980 0.035465
v 0.606545 0.537914 -0.125291
v 0.606545 0.532959 -0.286047
v 0.606545 0.529218 -0.446803
v 0.606545 0.531644 -0.607558
v 0.606545 0.540262 -0.768314
v 0.606545 0.550121 -0.929070
v 0.606545 0.553579 -1.089826
v 0.641980 0.427841 0.839244
v 0.641980 0.425507 0.678488
v 0.641980 0.425109 0.517732
v 0.641980 0.426429 0.356977
v 0.641980 0.426527 0.196221
v 0.641980 0.425298 0.035465
v 0.641980 0.422153 -0.125291
v 0.641980 0.419077 -0.286047
v 0.641980 0.415537 -0.446803
v 0.641980 0.416692 -0.607558
v 0.641980 0.424218 -0.768314
v 0.641980 0.432987 -0.929070
v 0.641980 0.435512 -1.089826
v -0.648204 0.275879 1.000000
v -0.648204 0.262565 -1.250582
v 0.000000 0.582572 1.000000
v 0.000000 0.556533 -1.250582
v -0.166667 0.582572 1.000000
v -0.333333 0.582572 1.000000
v -0.494056 0.578519 1.000000
v -0.606545 0.541580 1.000000
v -0.641980 0.430176 1.000000
v -0.641980 0.428066 -1.250582
v -0.606545 0.545379 -1.250582
v -0.494056 0.585404 -1.250582
v -0.333333 0.584006 -1.250582
v -0.166667 0.570553 -1.250582
v -0.648204 0.273544 0.839244
v -0.648204 0.271209 0.678488
v -0.648204 0.269087 0.517732
v -0.648204 0.268477 0.356977
v -0.648204 0.267196 0.196221
v -0.648204 0.265437 0.035465
v -0.648204 0.263359 -0.125291
v -0.648204 0.261659 -0.286047
v -0.648204 0.258425 -0.446803
v -0.648204 0.256648 -0.607558
v -0.648204 0.261400 -0.768314
v -0.648204 0.267610 -0.929070
v -0.648204 0.268727 -1.089826
v 0.000000 0.580328 0.839244
v 0.000000 0.584429 0.678488
v 0.000000 0.594169 0.517732
v 0.000000 0.603222 0.356977
v 0.000000 0.606521 0.196221
v 0.000000 0.602298 0.035465
v 0.000000 0.591540 -0.125291
v 0.000000 0.578367 -0.286047
v 0.000000 0.568361 -0.446803
v 0.000000 0.562972 -0.607558
v 0.000000 0.560078 -0.768314
v 0.000000 0.561200 -0.929070
v 0.000000 0.560839 -1.089826
v -0.166667 0.580641 0.839244
v -0.166667 0.586425 0.678488
v -0.166667 0.597815 0.517732
v -0.166667 0.608442 0.356977
v -0.166667 0.614251 0.196221
v -0.166667 0.610712 0.035465
v -0.166667 0.599720 -0.125291
v -0.166667 0.585463 -0.286047
v -0.166667 0.573210 -0.446803
v -0.166667 0.568873 -0.607558
v -0.166667 0.570947 -0.768314
v -0.166667 0.575251 -0.929070
v -0.166667 0.576655 -1.089826
v -0.333333 0.580328 0.839244
v -0.333333 0.584429 0.678488
v -0.333333 0.594169 0.517732
v -0.333333 0.603373 0.356977
v -0.333333 0.608881 0.196221
v -0.333333 0.606892 0.035465
v -0.333333 0.598016 -0.125291
v -0.333333 0.585760 -0.286047
v -0.333333 0.574958 -0.446803
v -0.333333 0.575049 -0.607558
v -0.333333 0.581269 -0.768314
v -0.333333 0.588816 -0.929070
v -0.333333 0.591792 -1.089826
v -0.494056 0.576185 0.839244
v -0.494056 0.576229 0.678488
v -0.494056 0.581840 0.517732
v -0.494056 0.587588 0.356977
v -0.494056 0.591060 0.196221
v -0.494056 0.589947 0.035465
v -0.494056 0.583875 -0.125291
v -0.494056 0.575411 -0.286047
v -0.494056 0.569332 -0.446803
v -0.494056 0.571824 -0.607558
v -0.494056 0.580354 -0.768314
v -0.494056 0.590111 -0.929070
v -0.494056 0.594188 -1.089826
v -0.606545 0.539246 0.839244
v -0.606545 0.537130 0.678488
v -0.606545 0.538841 0.517732
v -0.606545 0.541686 0.356977
v -0.606545 0.543010 0.196221
v -0.606545 0.541980 0.035465
v -0.606545 0.537914 -0.125291
v -0.606545 0.532959 -0.286047
v -0.606545 0.529218 -0.446803
v -0.606545 0.531644 -0.607558
v -0.606545 0.540262 -0.768314
v -0.606545 0.550121 -0.929070
v -0.606545 0.553579 -1.089826
v -0.641980 0.427841 0.839244
v -0.641980 0.425507 0.678488
v -0.641980 0.425109 0.517732
v -0.641980 0.426429 0.356977
v -0.641980 0.426527 0.196221
v -0.641980 0.425298 0.035465
v -0.641980 0.422153 -0.125291
v -0.641980 0.419077 -0.286047
v -0.641980 0.415537 -0.446803
v -0.641980 0.416692 -0.607558
v -0.641980 0.424218 -0.768314
v -0.641980 0.432987 -0.929070
v -0.641980 0.435512 -1.089826
vn 0.9993 0.0374 -0.0016
vn -0.0891 0.9955 -0.0322
vn -0.0854 0.9954 -0.0430
vn -0.0118 0.9986 -0.0515
vn 0.3370 0.9402 -0.0497
vn 0.9574 0.2883 -0.0140
vn 0.9529 0.3031 -0.0044
vn 0.9530 0.3028 -0.0042
vn 0.9539 0.3000 0.0012
vn 0.9553 0.2957 0.0038
vn 0.9563 0.2924 0.0013
vn 0.9568 0.2908 -0.0020
vn 0.9565 0.2916 -0.0065
vn 0.9555 0.2949 -0.0074
vn 0.9547 0.2973 -0.0067
vn 0.9552 0.2961 0.0033
vn 0.9559 0.2933 0.0147
vn 0.9566 0.2908 0.0168
vn 0.9575 0.2885 0.0054
vn 0.3120 0.9500 -0.0138
vn 0.3202 0.9473 -0.0061
vn 0.3427 0.9392 0.0214
vn 0.3674 0.9297 0.0248
vn 0.3853 0.9227 0.0138
vn 0.3925 0.9197 -0.0061
vn 0.3851 0.9224 -0.0291
vn 0.3655 0.9300 -0.0388
vn 0.3444 0.9384 -0.0287
vn 0.3361 0.9417 0.0144
vn 0.3356 0.9407 0.0502
vn 0.3348 0.9405 0.0574
vn 0.3372 0.9412 0.0221
vn 0.0255 0.9996 -0.0142
vn 0.0384 0.9992 0.0129
vn 0.0637 0.9968 0.0476
vn 0.0870 0.9951 0.0463
vn 0.1039 0.9942 0.0278
vn 0.1075 0.9942 -0.0096
vn 0.0962 0.9943 -0.0462
vn 0.0758 0.9951 -0.0641
vn 0.0496 0.9974 -0.0524
vn 0.0275 0.9996 0.0080
vn 0.0129 0.9989 0.0458
vn -0.0012 0.9986 0.0537
vn -0.0115 0.9997 0.0219
vn 0.0009 0.9999 -0.0130
vn 0.0069 0.9995 0.0307
vn 0.0169 0.9977 0.0656
vn 0.0261 0.9978 0.0615
vn 0.0313 0.9989 0.0352
vn 0.0276 0.9995 -0.0172
vn 0.0165 0.9980 -0.0617
vn 0.0042 0.9966 -0.0822
vn -0.0061 0.9974 -0.0715
vn -0.0238 0.9996 -0.0132
vn -0.0494 0.9984 0.0258
vn -0.0714 0.9968 0.0367
vn -0.0858 0.9962 0.0136
vn -0.0009 0.9999 -0.0130
vn -0.0069 0.9995 0.0307
vn -0.0169 0.9977 0.0656
vn -0.0265 0.9978 0.0611
vn -0.0388 0.9988 0.0283
vn -0.0484 0.9985 -0.0241
vn -0.0496 0.9965 -0.0674
vn -0.0456 0.9953 -0.0849
vn -0.0357 0.9970 -0.0690
vn -0.0322 0.9990 -0.0302
vn -0.0502 0.9987 -0.0025
vn -0.0745 0.9971 0.0168
vn -0.0892 0.9960 0.0032
vn 0.9992 0.0403 -0.0006
vn 0.9992 0.0401 -0.0003
vn 0.9992 0.0396 0.0001
vn 0.9992 0.0392 -0.0001
vn 0.9992 0.0390 -0.0004
vn 0.9992 0.0390 -0.0006
vn 0.9992 0.0393 -0.0006
vn 0.9992 0.0395 -0.0008
vn 0.9993 0.0385 0.0015
vn 0.9993 0.0379 0.0018
vn 0.9993 0.0375 0.0004
vn -0.9993 0.0374 -0.0016
vn 0.0891 0.9955 -0.0322
vn 0.0854 0.9954 -0.0430
vn 0.0118 0.9986 -0.0515
vn -0.3370 0.9402 -0.0497
vn -0.9574 0.2883 -0.0140
vn -0.9529 0.3031 -0.0044
vn -0.9530 0.3028 -0.0042
vn -0.9539 0.3000 0.0012
vn -0.9553 0.2957 0.0038
vn -0.9563 0.2924 0.0013
vn -0.9568 0.2908 -0.0020
vn -0.9565 0.2916 -0.0065
vn -0.9555 0.2949 -0.0074
vn -0.9547 0.2973 -0.0067
vn -0.9552 0.2961 0.0033
vn -0.9559 0.2933 0.0147
vn -0.9566 0.2908 0.0168
vn -0.9575 0.2885 0.0054
vn -0.3120 0.9500 -0.0138
vn -0.3202 0.9473 -0.0061
vn -0.3427 0.9392 0.0214
vn -0.3674 0.9297 0.0248
vn -0.3853 0.9227 0.0138
vn -0.3925 0.9197 -0.0061
vn -0.3851 0.9224 -0.0291
vn -0.3655 0.9300 -0.0388
vn -0.3444 0.9384 -0.0287
vn -0.3361 0.9417 0.0144
vn -0.3356 0.9407 0.0502
vn -0.3348 0.9405 0.0574
vn -0.3372 0.9412 0.0221
vn -0.0255 0.9996 -0.0142
vn -0.0384 0.9992 0.0129
vn -0.0637 0.9968 0.0476
vn -0.0870 0.9951 0.0463
vn -0.1039 0.9942 0.0278
vn -0.1075 0.9942 -0.0096
vn -0.0962 0.9943 -0.0462
vn -0.0758 0.9951 -0.0641
vn -0.0496 0.9974 -0.0524
vn -0.0275 0.9996 0.0080
vn -0.0129 0.9989 0.0458
vn 0.0012 0.9986 0.0537
vn 0.0115 0.9997 0.0219
vn -0.0261 0.9978 0.0615
vn -0.0313 0.9989 0.0352
vn -0.0276 0.9995 -0.0172
vn -0.0165 0.9980 -0.0617
vn -0.0042 0.9966 -0.0822
vn 0.0061 0.9974 -0.0715
vn 0.0238 0.9996 -0.0132
vn 0.0494 0.9984 0.0258
vn 0.0714 0.9968 0.0367
vn 0.0858 0.9962 0.0136
vn 0.0265 0.9978 0.0611
vn 0.0388 0.9988 0.0283
vn 0.0484 0.9985 -0.0241
vn 0.0496 0.9965 -0.0674
vn 0.0456 0.9953 -0.0849
vn 0.0357 0.9970 -0.0690
vn 0.0322 0.9990 -0.0302
vn 0.0502 0.9987 -0.0025
vn 0.0745 0.9971 0.0168
vn 0.0892 0.9960 0.0032
vn -0.9992 0.0403 -0.0006
vn -0.9992 0.0401 -0.0003
vn -0.9992 0.0396 0.0001
vn -0.9992 0.0392 -0.0001
vn -0.9992 0.0390 -0.0004
vn -0.9992 0.0390 -0.0006
vn -0.9992 0.0393 -0.0006
vn -0.9992 0.0395 -0.0008
vn -0.9993 0.0385 0.0015
vn -0.9993 0.0379 0.0018
vn -0.9993 0.0375 0.0004
usemtl None
s off
f 90//1 25//1 2//1 8//1
f 130//2 38//2 12//2 94//2
f 38//3 51//3 11//3 12//3
f 51//4 64//4 10//4 11//4
f 64//5 77//5 9//5 10//5
f 77//6 90//6 8//6 9//6
f 6//7 7//7 78//7 65//7
f 65//8 78//8 79//8 66//8
f 66//9 79//9 80//9 67//9
f 67//10 80//10 81//10 68//10
f 68//11 81//11 82//11 69//11
f 69//12 82//12 83//12 70//12
f 70//13 83//13 84//13 71//13
f 71//14 84//14 85//14 72//14
f 72//15 85//15 86//15 73//15
f 73//16 86//16 87//16 74//16
f 74//17 87//17 88//17 75//17
f 75//18 88//18 89//18 76//18
f 76//19 89//19 90//19 77//19
f 5//20 6//20 65//20 52//20
f 52//21 65//21 66//21 53//21
f 53//22 66//22 67//22 54//22
f 54//23 67//23 68//23 55//23
f 55//24 68//24 69//24 56//24
f 56//25 69//25 70//25 57//25
f 57//26 70//26 71//26 58//26
f 58//27 71//27 72//27 59//27
f 59//28 72//28 73//28 60//28
f 60//29 73//29 74//29 61//29
f 61//30 74//30 75//30 62//30
f 62//31 75//31 76//31 63//31
f 63//32 76//32 77//32 64//32
f 4//33 5//33 52//33 39//33
f 39//34 52//34 53//34 40//34
f 40//35 53//35 54//35 41//35
f 41//36 54//36 55//36 42//36
f 42//37 55//37 56//37 43//37
f 43//38 56//38 57//38 44//38
f 44//39 57//39 58//39 45//39
f 45//40 58//40 59//40 46//40
f 46//41 59//41 60//41 47//41
f 47//42 60//42 61//42 48//42
f 48//43 61//43 62//43 49//43
f 49//44 62//44 63//44 50//44
f 50//45 63//45 64//45 51//45
f 3//46 4//46 39//46 26//46
f 26//47 39//47 40//47 27//47
f 27//48 40//48 41//48 28//48
f 28//49 41//49 42//49 29//49
f 29//50 42//50 43//50 30//50
f 30//51 43//51 44//51 31//51
f 31//52 44//52 45//52 32//52
f 32//53 45//53 46//53 33//53
f 33//54 46//54 47//54 34//54
f 34//55 47//55 48//55 35//55
f 35//56 48//56 49//56 36//56
f 36//57 49//57 50//57 37//57
f 37//58 50//58 51//58 38//58
f 93//59 3//59 26//59 118//59
f 118//60 26//60 27//60 119//60
f 119//61 27//61 28//61 120//61
f 120//62 28//62 29//62 121//62
f 121//63 29//63 30//63 122//63
f 122//64 30//64 31//64 123//64
f 123//65 31//65 32//65 124//65
f 124//66 32//66 33//66 125//66
f 125//67 33//67 34//67 126//67
f 126//68 34//68 35//68 127//68
f 127//69 35//69 36//69 128//69
f 128//70 36//70 37//70 129//70
f 129//71 37//71 38//71 130//71
f 7//72 1//72 13//72 78//72
f 78//72 13//72 14//72 79//72
f 79//73 14//73 15//73 80//73
f 80//74 15//74 16//74 81//74
f 81//75 16//75 17//75 82//75
f 82//76 17//76 18//76 83//76
f 83//77 18//77 19//77 84//77
f 84//78 19//78 20//78 85//78
f 85//79 20//79 21//79 86//79
f 86//75 21//75 22//75 87//75
f 87//80 22//80 23//80 88//80
f 88//81 23//81 24//81 89//81
f 89//82 24//82 25//82 90//82
f 195//83 100//83 92//83 117//83
f 130//84 94//84 104//84 143//84
f 143//85 104//85 103//85 156//85
f 156//86 103//86 102//86 169//86
f 169//87 102//87 101//87 182//87
f 182//88 101//88 100//88 195//88
f 98//89 170//89 183//89 99//89
f 170//90 171//90 184//90 183//90
f 171//91 172//91 185//91 184//91
f 172//92 173//92 186//92 185//92
f 173//93 174//93 187//93 186//93
f 174//94 175//94 188//94 187//94
f 175//95 176//95 189//95 188//95
f 176//96 177//96 190//96 189//96
f 177//97 178//97 191//97 190//97
f 178//98 179//98 192//98 191//98
f 179//99 180//99 193//99 192//99
f 180//100 181//100 194//100 193//100
f 181//101 182//101 195//101 194//101
f 97//102 157//102 170//102 98//102
f 157//103 158//103 171//103 170//103
f 158//104 159//104 172//104 171//104
f 159//105 160//105 173//105 172//105
f 160//106 161//106 174//106 173//106
f 161//107 162//107 175//107 174//107
f 162//108 163//108 176//108 175//108
f 163//109 164//109 177//109 176//109
f 164//110 165//110 178//110 177//110
f 165//111 166//111 179//111 178//111
f 166//112 167//112 180//112 179//112
f 167//113 168//113 181//113 180//113
f 168//114 169//114 182//114 181//114
f 96//115 144//115 157//115 97//115
f 144//116 145//116 158//116 157//116
f 145//117 146//117 159//117 158//117
f 146//118 147//118 160//118 159//118
f 147//119 148//119 161//119 160//119
f 148//120 149//120 162//120 161//120
f 149//121 150//121 163//121 162//121
f 150//122 151//122 164//122 163//122
f 151//123 152//123 165//123 164//123
f 152//124 153//124 166//124 165//124
f 153//125 154//125 167//125 166//125
f 154//126 155//126 168//126 167//126
f 155//127 156//127 169//127 168//127
f 95//59 131//59 144//59 96//59
f 131//60 132//60 145//60 144//60
f 132//61 133//61 146//61 145//61
f 133//128 134//128 147//128 146//128
f 134//129 135//129 148//129 147//129
f 135//130 136//130 149//130 148//130
f 136//131 137//131 150//131 149//131
f 137//132 138//132 151//132 150//132
f 138//133 139//133 152//133 151//133
f 139//134 140//134 153//134 152//134
f 140//135 141//135 154//135 153//135
f 141//136 142//136 155//136 154//136
f 142//137 143//137 156//137 155//137
f 93//46 118//46 131//46 95//46
f 118//47 119//47 132//47 131//47
f 119//48 120//48 133//48 132//48
f 120//138 121//138 134//138 133//138
f 121//139 122//139 135//139 134//139
f 122//140 123//140 136//140 135//140
f 123//141 124//141 137//141 136//141
f 124//142 125//142 138//142 137//142
f 125//143 126//143 139//143 138//143
f 126//144 127//144 140//144 139//144
f 127//145 128//145 141//145 140//145
f 128//146 129//146 142//146 141//146
f 129//147 130//147 143//147 142//147
f 99//148 183//148 105//148 91//148
f 183//148 184//148 106//148 105//148
f 184//149 185//149 107//149 106//149
f 185//150 186//150 108//150 107//150
f 186//151 187//151 109//151 108//151
f 187//152 188//152 110//152 109//152
f 188//153 189//153 111//153 110//153
f 189//154 190//154 112//154 111//154
f 190//155 191//155 113//155 112//155
f 191//151 192//151 114//151 113//151
f 192//156 193//156 115//156 114//156
f 193//157 194//157 116//157 115//157
f 194//158 195//158 117//158 116//158
