# Blender v2.79 (sub 0) OBJ File: 'mate.blend'
# www.blender.org
mtllib monitor.mtl
o MONITOR_Untitled.011
v -0.467456 0.330972 0.486732
v 0.560039 0.330972 0.376535
v -0.529492 0.287912 0.377085
v 0.597413 0.287912 0.256227
v -0.445283 0.370139 -0.616426
v 0.304438 0.370139 -0.696832
v -0.467456 1.221094 0.486731
v 0.560039 1.221094 0.376535
v -0.529492 1.264153 0.377085
v 0.597413 1.264153 0.256226
v -0.445283 1.019624 -0.616426
v 0.304438 1.019624 -0.696832
v -0.569618 0.287912 0.002940
v 0.557287 0.287912 -0.117918
v 0.557287 1.264153 -0.117918
v -0.569618 1.264153 0.002940
vt 0.153669 0.005409
vt 0.153582 0.005322
vt 0.155561 0.005322
vt 0.155474 0.005409
vt 0.113558 0.146462
vt 0.110951 0.146485
vt 0.110873 0.146410
vt 0.113635 0.146385
vt 0.153669 0.007214
vt 0.155474 0.007214
vt 0.155561 0.007301
vt 0.153582 0.007301
vt 0.110896 0.149113
vt 0.110972 0.149036
vt 0.113582 0.149013
vt 0.113659 0.149088
vt 0.003051 0.002688
vt 0.156577 0.002688
vt 0.156577 0.141763
vt 0.003051 0.141763
vt 0.003051 0.145381
vt 0.115073 0.145381
vt 0.115073 0.246858
vt 0.003051 0.246858
vt 0.113134 0.148472
vt 0.113121 0.146785
vt 0.111393 0.146800
vt 0.111410 0.148487
vn 0.0372 -0.9371 0.3470
vn 0.0000 -1.0000 0.0000
vn 0.0372 0.9371 0.3470
vn 0.0000 1.0000 -0.0000
vn 0.1066 0.0000 0.9943
vn 0.9550 0.0000 0.2967
vn 0.9943 0.0000 -0.1066
vn -0.1066 0.0000 -0.9943
vn -0.9804 0.0000 -0.1968
vn -0.8704 0.0000 0.4924
vn -0.0144 -0.9908 -0.1344
vn -0.0401 0.9266 -0.3739
vn 0.9164 0.0000 -0.4003
vn -0.9943 0.0000 0.1066
usemtl Material_#29
s off
f 1/1/1 3/2/1 4/3/1
f 4/3/1 2/4/1 1/1/1
f 13/5/2 14/6/2 4/7/2
f 4/7/2 3/8/2 13/5/2
f 7/9/3 8/10/3 10/11/3
f 10/11/3 9/12/3 7/9/3
f 10/13/4 15/14/4 16/15/4
f 16/15/4 9/16/4 10/13/4
f 1/17/5 2/18/5 8/19/5
f 8/19/5 7/20/5 1/17/5
f 2/4/6 4/3/6 10/11/6
f 10/11/6 8/10/6 2/4/6
f 14/6/7 15/14/7 10/13/7
f 10/13/7 4/7/7 14/6/7
f 6/21/8 5/22/8 11/23/8
f 11/23/8 12/24/8 6/21/8
f 13/5/9 16/15/9 11/25/9
f 11/25/9 5/26/9 13/5/9
f 3/2/10 1/1/10 7/9/10
f 7/9/10 9/12/10 3/2/10
f 5/26/11 6/27/11 14/6/11
f 14/6/11 13/5/11 5/26/11
f 12/28/12 11/25/12 16/15/12
f 16/15/12 15/14/12 12/28/12
f 6/27/13 12/28/13 15/14/13
f 15/14/13 14/6/13 6/27/13
f 3/8/14 9/16/14 16/15/14
f 16/15/14 13/5/14 3/8/14
